<svg width="14" height="13" viewBox="0 0 14 13" fill="none" xmlns="http://www.w3.org/2000/svg">
<path d="M12.3333 3.00001H10.88C10.9533 2.79334 11 2.56668 11 2.33334C11 1.22668 10.1066 0.333344 8.99998 0.333344C8.29998 0.333344 7.69331 0.693343 7.33331 1.23334L6.99998 1.68001L6.66665 1.22668C6.30665 0.693343 5.69998 0.333344 4.99998 0.333344C3.89331 0.333344 2.99998 1.22668 2.99998 2.33334C2.99998 2.56668 3.04665 2.79334 3.11998 3.00001H1.66665C0.926646 3.00001 0.33998 3.59334 0.33998 4.33334L0.333313 11.6667C0.333313 12.4067 0.926646 13 1.66665 13H12.3333C13.0733 13 13.6666 12.4067 13.6666 11.6667V4.33334C13.6666 3.59334 13.0733 3.00001 12.3333 3.00001ZM8.99998 1.66668C9.36665 1.66668 9.66665 1.96668 9.66665 2.33334C9.66665 2.70001 9.36665 3.00001 8.99998 3.00001C8.63331 3.00001 8.33331 2.70001 8.33331 2.33334C8.33331 1.96668 8.63331 1.66668 8.99998 1.66668ZM4.99998 1.66668C5.36665 1.66668 5.66665 1.96668 5.66665 2.33334C5.66665 2.70001 5.36665 3.00001 4.99998 3.00001C4.63331 3.00001 4.33331 2.70001 4.33331 2.33334C4.33331 1.96668 4.63331 1.66668 4.99998 1.66668ZM12.3333 11.6667H1.66665V10.3333H12.3333V11.6667ZM12.3333 8.33334H1.66665V5.00001C1.66665 4.63334 1.96665 4.33334 2.33331 4.33334H5.05331L4.06665 5.68001C3.84665 5.98001 3.91331 6.40001 4.21331 6.61334C4.50665 6.82668 4.92665 6.76001 5.13998 6.46668L6.99998 3.93334L8.85998 6.46668C9.07331 6.76001 9.49331 6.82668 9.78665 6.61334C10.0866 6.40001 10.1533 5.98001 9.93331 5.68001L8.94665 4.33334H11.6666C12.0333 4.33334 12.3333 4.63334 12.3333 5.00001V8.33334Z" />
</svg>
